<svg width="32" height="32" viewBox="0 0 32 32" fill="none" xmlns="http://www.w3.org/2000/svg">
  <!-- 8-bit Pixel Heart with Crack -->
  
  <!-- Main heart body - red -->
  <rect x="8" y="6" width="4" height="4" fill="#FF3B30"/>
  <rect x="20" y="6" width="4" height="4" fill="#FF3B30"/>
  
  <rect x="4" y="10" width="4" height="4" fill="#FF3B30"/>
  <rect x="8" y="10" width="4" height="4" fill="#FF3B30"/>
  <rect x="12" y="10" width="4" height="4" fill="#FF3B30"/>
  <rect x="16" y="10" width="4" height="4" fill="#FF3B30"/>
  <rect x="20" y="10" width="4" height="4" fill="#FF3B30"/>
  <rect x="24" y="10" width="4" height="4" fill="#FF3B30"/>
  
  <rect x="4" y="14" width="4" height="4" fill="#FF3B30"/>
  <rect x="8" y="14" width="4" height="4" fill="#FF3B30"/>
  <rect x="12" y="14" width="4" height="4" fill="#FF3B30"/>
  <rect x="16" y="14" width="4" height="4" fill="#FF3B30"/>
  <rect x="20" y="14" width="4" height="4" fill="#FF3B30"/>
  <rect x="24" y="14" width="4" height="4" fill="#FF3B30"/>
  
  <rect x="4" y="18" width="4" height="4" fill="#FF3B30"/>
  <rect x="8" y="18" width="4" height="4" fill="#FF3B30"/>
  <rect x="12" y="18" width="4" height="4" fill="#FF3B30"/>
  <rect x="16" y="18" width="4" height="4" fill="#FF3B30"/>
  <rect x="20" y="18" width="4" height="4" fill="#FF3B30"/>
  <rect x="24" y="18" width="4" height="4" fill="#FF3B30"/>
  
  <rect x="8" y="22" width="4" height="4" fill="#FF3B30"/>
  <rect x="12" y="22" width="4" height="4" fill="#FF3B30"/>
  <rect x="16" y="22" width="4" height="4" fill="#FF3B30"/>
  <rect x="20" y="22" width="4" height="4" fill="#FF3B30"/>
  
  <rect x="12" y="26" width="4" height="4" fill="#FF3B30"/>
  <rect x="16" y="26" width="4" height="4" fill="#FF3B30"/>
  
  <!-- Crack in the middle (darker red) -->
  <rect x="16" y="10" width="4" height="4" fill="#9B0000"/>
  <rect x="16" y="14" width="4" height="4" fill="#9B0000"/>
  <rect x="12" y="18" width="4" height="4" fill="#9B0000"/>
  <rect x="12" y="22" width="4" height="4" fill="#9B0000"/>
  
  <!-- Dark outline -->
  <rect x="8" y="2" width="4" height="4" fill="#9B0000"/>
  <rect x="20" y="2" width="4" height="4" fill="#9B0000"/>
  
  <rect x="4" y="6" width="4" height="4" fill="#9B0000"/>
  <rect x="12" y="6" width="4" height="4" fill="#9B0000"/>
  <rect x="16" y="6" width="4" height="4" fill="#9B0000"/>
  <rect x="24" y="6" width="4" height="4" fill="#9B0000"/>
  
  <rect x="0" y="10" width="4" height="4" fill="#9B0000"/>
  <rect x="28" y="10" width="4" height="4" fill="#9B0000"/>
  
  <rect x="0" y="14" width="4" height="4" fill="#9B0000"/>
  <rect x="28" y="14" width="4" height="4" fill="#9B0000"/>
  
  <rect x="0" y="18" width="4" height="4" fill="#9B0000"/>
  <rect x="28" y="18" width="4" height="4" fill="#9B0000"/>
  
  <rect x="4" y="22" width="4" height="4" fill="#9B0000"/>
  <rect x="24" y="22" width="4" height="4" fill="#9B0000"/>
  
  <rect x="8" y="26" width="4" height="4" fill="#9B0000"/>
  <rect x="20" y="26" width="4" height="4" fill="#9B0000"/>
  
  <rect x="12" y="30" width="4" height="4" fill="#9B0000"/>
  <rect x="16" y="30" width="4" height="4" fill="#9B0000"/>
</svg>
